#!OML:ASF H:\Terrain\Patient Classification 1\Walking\steve\steve.ASF
:FULLY-SPECIFIED
:DEGREES
189
root 8.14541 16.159 3.92358 6.32433 1.40012 -1.48694
lowerback 3.79299 0.956461 3.69346
upperback -2.04572 1.56584 2.05264
thorax -4.20281 0.704669 -0.0642593
lowerneck -12.0247 -1.10749 -2.1253
upperneck 11.2701 -1.3934 2.02463
head 5.39744 -0.626165 0.867482
rclavicle -2.06736e-014 -1.19271e-014
rhumerus -68.2206 -43.2248 -34.3623
rradius 14.4917
rwrist 41.6359
rhand -18.1625 -34.6412
rfingers 7.12502
rthumb 8.11347 -64.4654
lclavicle -2.06736e-014 -1.19271e-014
lhumerus -27.5623 -9.02924 91.1422
lradius 48.1781
lwrist 24.9055
lhand -26.545 -17.3574
lfingers 7.12502
lthumb 0.0193424 12.6224
rfemur -33.3569 3.05662 26.5318
rtibia 39.6557
rfoot -11.704 6.8358
rtoes 6.94582
lfemur -8.78755 3.2981 -17.747
ltibia 67.403
lfoot 7.05541 5.0945
ltoes -13.4203
190
root 8.13111 16.2044 4.16269 6.71116 1.41922 -2.13269
lowerback 3.60581 1.10065 4.07992
upperback -2.28456 1.78692 2.23835
thorax -4.33537 0.802081 -0.101545
lowerneck -11.7375 -1.15614 -2.18284
upperneck 11.6095 -1.44143 1.89683
head 5.4559 -0.662593 0.834007
rclavicle -3.72721e-015 -2.38542e-015
rhumerus -64.739 -43.286 -38.4988
rradius 15.0001
rwrist 39.8116
rhand -18.7827 -34.4172
rfingers 7.12502
rthumb 7.51492 -64.2637
lclavicle -3.72721e-015 -2.38542e-015
lhumerus -28.5187 -8.71658 91.6754
lradius 46.022
lwrist 23.6233
lhand -26.672 -17.4774
lfingers 7.12502
lthumb -0.103341 12.5023
rfemur -32.3775 3.22686 27.3531
rtibia 39.0395
rfoot -12.4801 6.83713
rtoes 5.4685
lfemur -11.3869 3.74782 -16.8751
ltibia 68.9798
lfoot 4.70498 4.81872
ltoes -11.4816
191
root 8.11825 16.2527 4.40342 7.03398 1.5785 -2.45571
lowerback 3.40576 1.1881 4.2695
upperback -2.48586 1.91231 2.26757
thorax -4.42363 0.855815 -0.182847
lowerneck -11.0585 -1.25544 -2.3926
upperneck 11.6273 -1.55994 1.93833
head 5.3517 -0.730351 0.874632
rclavicle -1.29707e-014 -1.03368e-014
rhumerus -59.0299 -41.204 -46.1484
rradius 15.857
rwrist 34.5441
rhand -19.4669 -35.3176
rfingers 7.12502
rthumb 6.85442 -65.1867
lclavicle -1.29707e-014 -1.03368e-014
lhumerus -29.6443 -8.42704 92.0918
lradius 44.0756
lwrist 22.5458
lhand -26.7813 -17.23
lfingers 7.12502
lthumb -0.208869 12.7497
rfemur -31.3673 3.08211 27.8274
rtibia 38.4133
rfoot -12.9799 7.09432
rtoes 5.74584
lfemur -13.9407 3.96496 -16.4463
ltibia 70.147
lfoot 2.94946 4.61844
ltoes -8.00902
192
root 8.11159 16.2965 4.65969 7.15391 1.49955 -2.10957
lowerback 3.21918 1.32171 3.83379
upperback -2.54178 2.05065 2.06202
thorax -4.37675 0.935049 -0.157922
lowerneck -10.9424 -1.3627 -2.34319
upperneck 12.0901 -1.72277 1.94722
head 5.47998 -0.807348 0.856924
rclavicle -6.16232e-015 1.03368e-014
rhumerus -52.9589 -37.1656 -55.0451
rradius 17.358
rwrist 27.2208
rhand -19.6518 -37.2583
rfingers 7.12502
rthumb 6.676 -67.1331
lclavicle -6.16232e-015 1.03368e-014
lhumerus -30.7331 -8.21707 92.3874
lradius 42.0162
lwrist 21.3362
lhand -26.9217 -17.0381
lfingers 7.12502
lthumb -0.344471 12.9414
rfemur -30.1258 2.76799 27.5704
rtibia 37.7592
rfoot -13.2293 7.70628
rtoes 6.05336
lfemur -16.0875 4.22088 -16.9131
ltibia 70.8711
lfoot 1.33693 4.14119
ltoes -7.99457
193
root 8.10483 16.3389 4.91084 7.31554 1.30269 -2.05205
lowerback 2.95452 1.46703 3.54379
upperback -2.52853 2.21309 2.01276
thorax -4.21564 1.02667 -0.0504164
lowerneck -11.0144 -1.35517 -2.26928
upperneck 12.4487 -1.7315 1.97094
head 5.60412 -0.805692 0.851107
rclavicle 2.98674e-014 1.19271e-014
rhumerus -48.7401 -34.485 -60.65
rradius 18.5604
rwrist 22.7135
rhand -20.373 -39.2966
rfingers 7.12502
rthumb 5.97972 -69.1922
lclavicle 2.98674e-014 1.19271e-014
lhumerus -31.6041 -7.69419 92.5992
lradius 39.6897
lwrist 19.4212
lhand -27.0239 -17.3876
lfingers 7.12502
lthumb -0.443157 12.5917
rfemur -28.9857 2.46866 27.6258
rtibia 37.0647
rfoot -13.3365 8.43728
rtoes 5.50123
lfemur -18.2053 4.62828 -17.1144
ltibia 71.2282
lfoot -0.544623 3.74836
ltoes -10.0042
194
root 8.09421 16.3704 5.13806 7.4217 1.26508 -2.50309
lowerback 2.98432 1.55833 3.71368
upperback -2.52009 2.35047 2.15876
thorax -4.22058 1.09221 -0.00377145
lowerneck -10.9002 -1.33936 -2.39523
upperneck 12.506 -1.71024 2.09846
head 5.60442 -0.792525 0.91407
rclavicle -3.42904e-015 -3.10104e-014
rhumerus -45.4117 -32.9776 -64.2817
rradius 19.5212
rwrist 19.5123
rhand -21.9771 -39.641
rfingers 7.12502
rthumb 4.43085 -69.5747
lclavicle -3.42904e-015 -3.10104e-014
lhumerus -32.2334 -6.85075 92.6665
lradius 37.2072
lwrist 17.2192
lhand -26.9499 -17.3425
lfingers 7.12502
lthumb -0.371701 12.6369
rfemur -27.8636 2.41277 28.2037
rtibia 36.3716
rfoot -13.3645 8.95862
rtoes 5.33252
lfemur -20.4904 5.00012 -16.7098
ltibia 71.4566
lfoot -2.34248 3.32744
ltoes -13.3826
195
root 8.10525 16.412 5.41593 7.30921 1.34319 -2.79963
lowerback 2.57129 1.6237 4.1305
upperback -2.3745 2.42633 2.16823
thorax -3.8176 1.12609 -0.215528
lowerneck -10.7665 -1.38606 -2.39239
upperneck 12.7658 -1.77359 2.05194
head 5.66418 -0.827119 0.894547
rclavicle -4.42296e-015 -4.77083e-015
rhumerus -42.5065 -30.5976 -67.8815
rradius 20.9844
rwrist 15.6569
rhand -23.0812 -38.4981
rfingers 7.12502
rthumb 3.36469 -68.4513
lclavicle -4.42296e-015 -4.77083e-015
lhumerus -33.0288 -5.70011 92.4557
lradius 34.9966
lwrist 14.8706
lhand -26.0217 -16.2479
lfingers 7.12502
lthumb 0.524748 13.7312
rfemur -26.1196 2.05599 28.5278
rtibia 35.7005
rfoot -13.7807 9.75103
rtoes 7.05505
lfemur -22.0522 5.13568 -16.6197
ltibia 71.2023
lfoot -3.98925 3.30672
ltoes -18.3156
196
root 8.11024 16.4393 5.67881 7.39577 1.41443 -3.02696
lowerback 2.36126 1.71577 4.39655
upperback -2.4923 2.55129 2.12564
thorax -3.80461 1.17939 -0.408799
lowerneck -10.6568 -1.50153 -2.35389
upperneck 13.2901 -1.93066 1.94868
head 5.81243 -0.909347 0.843377
rclavicle -3.06874e-014 -2.06736e-014
rhumerus -40.2664 -27.5905 -71.2118
rradius 22.8534
rwrist 12.2893
rhand -22.7227 -38.5134
rfingers 7.12502
rthumb 3.71089 -68.4608
lclavicle -3.06874e-014 -2.06736e-014
lhumerus -34.3076 -4.51218 92.1213
lradius 32.9978
lwrist 12.3665
lhand -25.1793 -16.3024
lfingers 7.12502
lthumb 1.33837 13.6732
rfemur -24.7854 1.88974 28.7857
rtibia 35.1208
rfoot -14.5061 10.2939
rtoes 9.37515
lfemur -23.9756 5.15957 -16.5715
ltibia 70.8283
lfoot -4.95012 3.4477
ltoes -17.2708
197
root 8.11281 16.4539 5.92748 7.40686 1.42557 -2.7703
lowerback 2.4657 1.80676 4.1458
upperback -2.60744 2.66663 1.92235
thorax -3.97958 1.23638 -0.490567
lowerneck -10.6457 -1.64132 -2.45927
upperneck 13.72 -2.14573 2.18963
head 5.95445 -1.00031 0.918795
rclavicle -9.81499e-015 -1.70955e-014
rhumerus -38.4057 -24.8117 -74.0472
rradius 24.9919
rwrist 8.89342
rhand -22.3507 -37.6868
rfingers 7.12502
rthumb 4.07009 -67.6277
lclavicle -9.81499e-015 -1.70955e-014
lhumerus -35.4977 -4.07052 92.0209
lradius 30.6454
lwrist 10.9082
lhand -26.2036 -18.3429
lfingers 7.12502
lthumb 0.349133 11.6366
rfemur -23.5942 1.53815 28.5581
rtibia 34.6552
rfoot -14.9173 11.156
rtoes 11.8655
lfemur -25.6868 4.87777 -17.081
ltibia 70.2231
lfoot -5.99547 3.35514
ltoes -12.4723
198
root 8.11029 16.4526 6.16553 7.40703 1.30802 -2.91017
lowerback 2.59227 1.94889 4.17509
upperback -2.61227 2.86299 1.8545
thorax -4.04425 1.33073 -0.592298
lowerneck -10.6113 -1.68721 -2.56928
upperneck 13.8229 -2.25728 2.61301
head 5.9897 -1.0276 1.06171
rclavicle 7.65321e-015 -6.75868e-015
rhumerus -36.6522 -21.8792 -76.677
rradius 27.4963
rwrist 4.82621
rhand -22.6184 -36.4787
rfingers 7.12502
rthumb 3.81159 -66.4243
lclavicle 7.65321e-015 -6.75868e-015
lhumerus -36.2205 -3.72602 91.8728
lradius 28.1307
lwrist 9.8656
lhand -26.8024 -19.1391
lfingers 7.12502
lthumb -0.229237 10.8405
rfemur -22.5382 1.50818 28.7969
rtibia 34.3121
rfoot -15.5912 11.5401
rtoes 11.1463
lfemur -27.522 4.95487 -17.14
ltibia 69.5935
lfoot -7.10648 3.07744
ltoes -11.7729
199
root 8.10643 16.4384 6.40149 7.61458 1.14623 -3.8939
lowerback 2.50705 2.14479 5.00738
upperback -2.68708 3.16587 2.0277
thorax -4.03149 1.45864 -0.889776
lowerneck -10.4997 -1.70939 -2.61019
upperneck 13.9236 -2.31088 2.78181
head 6.00617 -1.0432 1.11818
rclavicle 1.03865e-014 1.31198e-014
rhumerus -35.1091 -18.9646 -78.877
rradius 30.0142
rwrist 1.18207
rhand -23.361 -37.6025
rfingers 7.12502
rthumb 3.09448 -67.5598
lclavicle 1.03865e-014 1.31198e-014
lhumerus -36.8939 -2.27502 91.103
lradius 25.6919
lwrist 7.14999
lhand -26.181 -18.6037
lfingers 7.12502
lthumb 0.370913 11.3757
rfemur -21.7608 1.69965 29.9706
rtibia 34.0965
rfoot -16.7833 11.4937
rtoes 7.4845
lfemur -29.7935 5.35431 -16.2452
ltibia 68.8647
lfoot -8.09935 2.95836
ltoes -14.0951
200
root 8.10682 16.4243 6.65255 7.75847 1.00631 -4.52298
lowerback 2.43224 2.31287 5.58466
upperback -2.79327 3.41685 2.06519
thorax -4.05964 1.56437 -1.18243
lowerneck -10.466 -1.84022 -2.46547
upperneck 14.2168 -2.48878 2.58526
head 6.09378 -1.13611 1.01741
rclavicle 4.94477e-015 2.8625e-014
rhumerus -33.7497 -16.7667 -80.4435
rradius 32.0972
rwrist -1.30456
rhand -23.4531 -37.8965
rfingers 7.12502
rthumb 3.00548 -67.8551
lclavicle 4.94477e-015 2.8625e-014
lhumerus -37.8208 -0.248378 89.8784
lradius 23.2249
lwrist 3.5348
lhand -26.0801 -19.1524
lfingers 7.12502
lthumb 0.468427 10.8268
rfemur -20.8342 1.5341 30.7554
rtibia 33.9892
rfoot -17.7748 11.8108
rtoes 5.46532
lfemur -31.7094 5.37621 -15.7361
ltibia 67.7107
lfoot -9.58331 2.78303
ltoes -15.4955
201
root 8.11054 16.4227 6.91791 7.74084 0.813908 -4.33337
lowerback 2.45238 2.47396 5.38395
upperback -2.84582 3.62084 1.8933
thorax -4.11362 1.66702 -1.26121
lowerneck -10.3141 -2.0091 -2.50437
upperneck 14.2647 -2.73435 2.70149
head 6.0915 -1.24915 1.04116
rclavicle 2.02015e-014 -8.74653e-015
rhumerus -32.6516 -15.0648 -81.483
rradius 34.2499
rwrist -3.09251
rhand -22.3658 -37.0238
rfingers 7.12502
rthumb 4.05549 -66.965
lclavicle 2.02015e-014 -8.74653e-015
lhumerus -38.8055 1.67813 88.5114
lradius 20.8548
lwrist 0.402554
lhand -25.5355 -18.9074
lfingers 7.12502
lthumb 0.994351 11.07
rfemur -19.7101 0.837249 30.6543
rtibia 33.8813
rfoot -18.6494 12.0951
rtoes 2.96726
lfemur -32.9601 5.16519 -16.1826
ltibia 66.0739
lfoot -11.468 2.61265
ltoes -16.7477
